<?xml version="1.0" encoding="UTF-8" standalone="no"?>
<!DOCTYPE svg PUBLIC "-//W3C//DTD SVG 1.1//EN"
 "http://www.w3.org/Graphics/SVG/1.1/DTD/svg11.dtd">
<!-- Generated by graphviz version 2.43.0 (0)
 -->
<!-- Title: %3 Pages: 1 -->
<svg width="1176pt" height="165pt"
 viewBox="0.00 0.00 1176.00 164.74" xmlns="http://www.w3.org/2000/svg" xmlns:xlink="http://www.w3.org/1999/xlink">
<g id="graph0" class="graph" transform="scale(1 1) rotate(0) translate(36 128.74)">
<title>%3</title>
<polygon fill="dimgray" stroke="transparent" points="-36,36 -36,-128.74 1140,-128.74 1140,36 -36,36"/>
<text text-anchor="middle" x="552" y="-77.54" font-family="Helvetica,sans-Serif" font-size="14.00">Sweep&#39;s Plan &amp; Progress</text>
<!-- start -->
<g id="node1" class="node">
<title>start</title>
</g>
<!-- 79990c35&#45;01a5&#45;4224&#45;adea&#45;b518905a9abf -->
<g id="node3" class="node">
<title>79990c35&#45;01a5&#45;4224&#45;adea&#45;b518905a9abf</title>
<ellipse fill="#0ee832" stroke="black" cx="211.5" cy="-26.87" rx="159.2" ry="26.74"/>
<text text-anchor="middle" x="211.5" y="-30.67" font-family="Helvetica,sans-Serif" font-size="14.00">✓ Create</text>
<text text-anchor="middle" x="211.5" y="-15.67" font-family="Helvetica,sans-Serif" font-size="14.00">tests/commandHandler.test.ts</text>
</g>
<!-- start&#45;&gt;79990c35&#45;01a5&#45;4224&#45;adea&#45;b518905a9abf -->
<g id="edge4" class="edge">
<title>start&#45;&gt;79990c35&#45;01a5&#45;4224&#45;adea&#45;b518905a9abf</title>
<path fill="none" stroke="black" d="M1.11,-26.87C4.35,-26.87 20.33,-26.87 42.16,-26.87"/>
<polygon fill="black" stroke="black" points="42.22,-30.37 52.22,-26.87 42.22,-23.37 42.22,-30.37"/>
<text text-anchor="middle" x="26.7" y="-33.67" font-family="Helvetica,sans-Serif" font-size="14.00">Start</text>
</g>
<!-- end -->
<g id="node2" class="node">
<title>end</title>
</g>
<!-- 07ce8706&#45;20b2&#45;4161&#45;ab6a&#45;847132bda75c -->
<g id="node4" class="node">
<title>07ce8706&#45;20b2&#45;4161&#45;ab6a&#45;847132bda75c</title>
<ellipse fill="#0ee832" stroke="black" cx="517.5" cy="-26.87" rx="111.95" ry="26.74"/>
<text text-anchor="middle" x="517.5" y="-30.67" font-family="Helvetica,sans-Serif" font-size="14.00">✓ Create</text>
<text text-anchor="middle" x="517.5" y="-15.67" font-family="Helvetica,sans-Serif" font-size="14.00">tests/settings.test.ts</text>
</g>
<!-- 79990c35&#45;01a5&#45;4224&#45;adea&#45;b518905a9abf&#45;&gt;07ce8706&#45;20b2&#45;4161&#45;ab6a&#45;847132bda75c -->
<g id="edge1" class="edge">
<title>79990c35&#45;01a5&#45;4224&#45;adea&#45;b518905a9abf&#45;&gt;07ce8706&#45;20b2&#45;4161&#45;ab6a&#45;847132bda75c</title>
<path fill="none" stroke="black" d="M370.78,-26.87C379.06,-26.87 387.35,-26.87 395.63,-26.87"/>
<polygon fill="black" stroke="black" points="395.74,-30.37 405.74,-26.87 395.74,-23.37 395.74,-30.37"/>
</g>
<!-- 9c05b781&#45;22e4&#45;4319&#45;88e6&#45;e970459a781d -->
<g id="node5" class="node">
<title>9c05b781&#45;22e4&#45;4319&#45;88e6&#45;e970459a781d</title>
<ellipse fill="#0ee832" stroke="black" cx="761.5" cy="-26.87" rx="96.75" ry="26.74"/>
<text text-anchor="middle" x="761.5" y="-30.67" font-family="Helvetica,sans-Serif" font-size="14.00">✓ Create</text>
<text text-anchor="middle" x="761.5" y="-15.67" font-family="Helvetica,sans-Serif" font-size="14.00">tests/main.test.ts</text>
</g>
<!-- 07ce8706&#45;20b2&#45;4161&#45;ab6a&#45;847132bda75c&#45;&gt;9c05b781&#45;22e4&#45;4319&#45;88e6&#45;e970459a781d -->
<g id="edge2" class="edge">
<title>07ce8706&#45;20b2&#45;4161&#45;ab6a&#45;847132bda75c&#45;&gt;9c05b781&#45;22e4&#45;4319&#45;88e6&#45;e970459a781d</title>
<path fill="none" stroke="black" d="M629.49,-26.87C637.8,-26.87 646.11,-26.87 654.42,-26.87"/>
<polygon fill="black" stroke="black" points="654.56,-30.37 664.56,-26.87 654.56,-23.37 654.56,-30.37"/>
</g>
<!-- c9dcf418&#45;bd86&#45;426f&#45;97ed&#45;e42d5275be8e -->
<g id="node6" class="node">
<title>c9dcf418&#45;bd86&#45;426f&#45;97ed&#45;e42d5275be8e</title>
<ellipse fill="yellow" stroke="black" cx="969.5" cy="-26.87" rx="75.82" ry="26.74"/>
<text text-anchor="middle" x="969.5" y="-30.67" font-family="Helvetica,sans-Serif" font-size="14.00">⋯ Modify</text>
<text text-anchor="middle" x="969.5" y="-15.67" font-family="Helvetica,sans-Serif" font-size="14.00">package.json</text>
</g>
<!-- 9c05b781&#45;22e4&#45;4319&#45;88e6&#45;e970459a781d&#45;&gt;c9dcf418&#45;bd86&#45;426f&#45;97ed&#45;e42d5275be8e -->
<g id="edge3" class="edge">
<title>9c05b781&#45;22e4&#45;4319&#45;88e6&#45;e970459a781d&#45;&gt;c9dcf418&#45;bd86&#45;426f&#45;97ed&#45;e42d5275be8e</title>
<path fill="none" stroke="black" d="M858.59,-26.87C866.91,-26.87 875.23,-26.87 883.54,-26.87"/>
<polygon fill="black" stroke="black" points="883.69,-30.37 893.69,-26.87 883.69,-23.37 883.69,-30.37"/>
</g>
<!-- c9dcf418&#45;bd86&#45;426f&#45;97ed&#45;e42d5275be8e&#45;&gt;end -->
<g id="edge5" class="edge">
<title>c9dcf418&#45;bd86&#45;426f&#45;97ed&#45;e42d5275be8e&#45;&gt;end</title>
<path fill="none" stroke="black" d="M1045.51,-26.87C1064.13,-26.87 1081.82,-26.87 1092.65,-26.87"/>
<polygon fill="black" stroke="black" points="1092.79,-30.37 1102.79,-26.87 1092.79,-23.37 1092.79,-30.37"/>
<text text-anchor="middle" x="1074.08" y="-33.67" font-family="Helvetica,sans-Serif" font-size="14.00">Finish</text>
</g>
</g>
</svg>
